<?xml version="1.0" standalone="no"?>
<!DOCTYPE svg PUBLIC "-//W3C//DTD SVG 20010904//EN"
 "http://www.w3.org/TR/2001/REC-SVG-20010904/DTD/svg10.dtd">
<svg version="1.0" xmlns="http://www.w3.org/2000/svg"
 width="900.000000pt" height="900.000000pt" viewBox="0 0 900.000000 900.000000"
 preserveAspectRatio="xMidYMid meet">
<metadata>
Created by potrace 1.10, written by Peter Selinger 2001-2011
</metadata>
<g transform="translate(0.000000,900.000000) scale(0.100000,-0.100000)"
fill="#000000" stroke="none">
<path d="M1520 5097 c0 -8 10 -22 22 -33 11 -10 37 -53 56 -94 39 -83 39 -81
-18 -205 -16 -33 -37 -80 -48 -105 -11 -25 -41 -90 -65 -145 -25 -55 -69 -152
-97 -215 -28 -63 -60 -133 -70 -155 -69 -154 -101 -214 -130 -242 -41 -40 -33
-45 80 -41 80 3 84 4 90 28 4 14 26 64 49 113 22 48 41 93 41 101 0 7 11 25
25 40 l24 26 233 0 c128 0 238 -4 244 -8 10 -6 28 -44 85 -169 10 -24 28 -63
40 -88 l21 -45 112 0 c62 0 116 3 119 6 4 4 -8 23 -25 43 -17 19 -44 65 -60
101 -17 36 -45 98 -64 138 -19 40 -34 75 -34 77 0 2 -20 47 -45 99 -25 53 -45
98 -45 100 0 3 -20 48 -45 100 -25 53 -45 98 -45 101 0 3 -20 48 -45 101 -25
52 -45 97 -45 99 0 3 -18 43 -40 89 -21 46 -45 100 -53 119 -29 68 -48 77
-164 77 -80 0 -103 -3 -103 -13z m210 -408 c0 -8 14 -39 80 -184 10 -22 30
-67 44 -100 15 -33 33 -73 41 -88 19 -36 19 -63 1 -70 -18 -7 -339 -7 -366 0
-28 7 -23 35 21 130 17 37 38 82 45 98 7 17 27 60 43 98 17 37 31 71 31 76 0
16 42 61 51 56 5 -4 9 -10 9 -16z"/>
<path d="M2460 5098 c0 -7 12 -31 25 -53 l25 -40 0 -534 0 -534 -25 -32 c-13
-18 -21 -35 -18 -39 8 -8 206 -8 227 0 14 6 16 66 16 585 l0 579 26 6 c15 4
75 4 134 1 125 -6 171 -25 228 -94 90 -107 64 -308 -51 -396 -46 -35 -68 -34
-90 4 -19 35 -21 35 -116 1 -72 -25 -82 -42 -51 -84 13 -18 44 -61 67 -95 24
-35 63 -91 86 -125 24 -35 62 -90 85 -123 23 -33 72 -105 110 -160 l69 -100
118 -3 c113 -3 164 8 119 24 -28 11 -124 118 -124 139 0 4 -13 24 -29 44 -15
20 -63 88 -106 151 -43 63 -90 131 -105 150 -34 44 -46 79 -28 84 121 33 162
52 208 93 121 109 144 285 54 412 -51 71 -125 113 -237 137 -92 19 -617 21
-617 2z"/>
<path d="M3620 5105 c0 -3 12 -24 28 -48 l27 -42 3 -495 c4 -519 0 -582 -39
-621 -11 -11 -17 -24 -14 -29 4 -6 67 -10 145 -10 127 0 168 8 139 26 -6 3
-20 25 -30 48 -17 38 -19 74 -19 556 l0 515 25 44 c14 23 25 47 25 52 0 5 -65
9 -145 9 -80 0 -145 -2 -145 -5z"/>
<path d="M4106 5098 c-3 -7 -7 -31 -10 -53 -3 -22 -8 -55 -12 -72 -6 -31 -5
-33 20 -33 15 0 36 5 47 10 36 20 247 80 278 80 l31 0 0 -547 0 -546 -25 -32
c-13 -18 -21 -35 -18 -39 10 -10 281 -7 288 4 3 5 -3 18 -14 29 -11 11 -22 39
-26 63 -3 24 -5 273 -3 553 l3 510 30 3 c29 4 74 -8 210 -56 39 -14 84 -25
100 -26 l30 -1 -3 65 c-2 36 -6 73 -8 83 -5 16 -36 17 -460 17 -355 0 -455 -3
-458 -12z"/>
<path d="M5221 5087 c-5 -12 -10 -51 -12 -87 l-4 -65 30 3 c17 2 50 9 75 16
55 16 159 40 265 60 191 36 201 31 144 -64 -12 -19 -40 -69 -62 -110 -22 -41
-43 -79 -47 -85 -4 -5 -22 -37 -40 -70 -18 -33 -46 -85 -63 -115 -30 -56 -72
-132 -113 -205 -13 -22 -32 -58 -44 -80 -43 -79 -82 -148 -111 -197 -16 -27
-29 -51 -29 -54 0 -9 -67 -109 -89 -132 -12 -12 -19 -27 -16 -32 4 -6 167 -10
445 -10 417 0 440 1 449 18 12 23 33 144 26 151 -3 2 -27 0 -53 -6 -158 -38
-336 -69 -447 -78 -38 -3 -85 -8 -102 -11 -31 -6 -33 -5 -33 24 0 17 4 33 9
37 6 3 16 18 23 33 25 48 101 187 108 197 5 6 30 51 56 100 27 50 58 108 71
130 12 22 28 51 36 65 7 14 31 57 52 95 21 39 49 88 62 110 12 22 29 54 37 70
8 17 29 55 46 85 18 30 42 73 53 95 12 22 36 57 54 78 18 20 33 42 33 47 0 6
-141 10 -400 10 l-400 0 -9 -23z"/>
<path d="M6210 5104 c0 -3 11 -22 25 -42 l25 -37 0 -538 c0 -455 -2 -542 -15
-567 -8 -15 -20 -30 -27 -32 -6 -2 -8 -10 -4 -16 8 -13 277 -18 289 -5 4 3 -3
17 -15 31 l-23 24 0 563 c0 501 2 565 16 581 38 44 38 44 -120 44 -83 0 -151
-2 -151 -6z"/>
<path d="M7020 5103 c0 -5 12 -21 26 -38 33 -38 84 -145 84 -175 0 -13 -9 -42
-19 -64 -11 -23 -43 -93 -71 -156 -28 -63 -64 -142 -80 -175 -15 -33 -38 -85
-50 -115 -13 -30 -27 -59 -31 -65 -4 -5 -26 -55 -49 -110 -75 -176 -130 -283
-157 -305 -39 -31 -19 -41 73 -38 l79 3 28 55 c16 30 46 95 67 144 22 53 46
93 56 97 11 4 121 8 246 8 221 1 228 0 248 -21 11 -12 20 -26 20 -30 0 -8 21
-56 89 -198 l26 -55 114 -3 c115 -3 152 6 112 28 -25 13 -59 65 -90 140 -13
30 -41 92 -62 138 -22 46 -39 85 -39 87 0 1 -18 43 -41 92 -22 48 -50 108 -61
133 -11 25 -33 73 -49 107 -16 35 -29 65 -29 68 0 3 -20 48 -45 101 -25 52
-45 97 -45 100 0 4 -25 60 -82 182 -30 65 -47 72 -165 72 -57 0 -103 -3 -103
-7z m236 -472 c14 -31 34 -74 44 -96 10 -22 30 -67 45 -100 14 -33 37 -83 51
-112 30 -65 30 -69 -2 -77 -30 -8 -350 -7 -371 1 -17 7 -17 28 1 61 8 15 22
45 31 67 9 22 23 54 30 70 45 97 75 166 75 169 0 2 9 25 21 50 25 57 37 52 75
-33z"/>
</g>
</svg>
