<?xml version="1.0" encoding="utf-8"?>
<!-- Generator: Adobe Illustrator 16.0.3, SVG Export Plug-In . SVG Version: 6.00 Build 0)  -->
<!DOCTYPE svg PUBLIC "-//W3C//DTD SVG 1.1//EN" "http://www.w3.org/Graphics/SVG/1.1/DTD/svg11.dtd">
<svg version="1.1" id="Calque_3" xmlns="http://www.w3.org/2000/svg" xmlns:xlink="http://www.w3.org/1999/xlink" x="0px" y="0px"
	 width="450px" height="240px" viewBox="0 0 450 240" enable-background="new 0 0 450 240" xml:space="preserve">
<g>
	<path fill-rule="evenodd" clip-rule="evenodd" d="M0.522,131.906c0.964-0.173,1.927-0.492,2.891-0.497
		c7.244-0.035,14.492-0.121,21.733,0.036c4.849,0.104,9.564,0.976,13.67,3.891c3.562,2.529,5.31,5.997,5.719,10.292
		c0.505,5.298-1.298,9.596-5.382,13.106c0.197,0.229,0.37,0.505,0.611,0.692c5.658,4.465,7.324,10.344,5.609,17.109
		c-1.625,6.406-5.309,11.218-12.022,13.021c-1.337,0.36-2.785,0.421-4.183,0.429c-7.325,0.041-14.651,0.029-21.978,0.016
		c-2.222-0.003-4.445-0.068-6.668-0.105C0.522,170.565,0.522,151.236,0.522,131.906z M13.066,178.941
		c4.914,0.362,9.546,0.762,14.166-0.093c3.841-0.71,5.795-3.323,5.755-7.537c-0.033-3.411-1.826-5.522-5.774-5.896
		c-4.113-0.389-8.274-0.271-12.415-0.333c-0.55-0.009-1.103,0.235-1.731,0.381C13.066,169.926,13.066,174.296,13.066,178.941z
		 M13.067,154.08c3.417,0.031,6.716,0.187,10.002,0.042c1.795-0.079,3.615-0.516,5.335-1.064c1.914-0.608,3.419-1.86,3.467-4.079
		c0.047-2.206-0.329-4.299-2.491-5.583c-5.148-3.059-10.692-1.87-16.313-1.905C13.067,145.729,13.067,149.614,13.067,154.08z"/>
	<path fill-rule="evenodd" clip-rule="evenodd" d="M450.453,149.403c-4.511,8.263-10.58,15.425-16.236,22.873
		c-1.045,1.375-1.407,2.735-1.356,4.371c0.11,3.575,0.186,7.154,0.213,10.732c0.018,2.247-0.533,2.84-2.742,2.892
		c-2.745,0.063-5.495,0.051-8.241,0.003c-2.268-0.04-3.003-0.729-2.965-3.036c0.057-3.489,0.207-6.979,0.455-10.459
		c0.146-2.03-0.434-3.638-1.667-5.271c-4.649-6.161-9.154-12.431-13.726-18.649c-1.225-1.665-1.761-3.517-1.791-5.571
		c-0.062-4.155-0.242-8.309-0.224-12.465c0.006-1.191,0.522-2.381,0.77-3.421c3.327,0,6.456-0.005,9.583,0.002
		c2.632,0.005,3.035,0.366,2.966,3.059c-0.093,3.572-0.34,7.14-0.405,10.712c-0.017,0.945,0.106,2.106,0.639,2.817
		c3.186,4.254,6.502,8.41,9.801,12.578c0.175,0.219,0.574,0.262,1.114,0.49c1.378-1.626,2.812-3.203,4.117-4.884
		c1.937-2.491,3.881-4.987,5.611-7.62c0.633-0.963,0.943-2.326,0.923-3.497c-0.065-3.652-0.406-7.3-0.525-10.952
		c-0.027-0.849,0.401-1.713,0.658-2.712c3.656,0,7.144-0.093,10.619,0.07c0.824,0.038,1.606,0.938,2.41,1.441
		C450.453,138.405,450.453,143.904,450.453,149.403z"/>
	<path fill-rule="evenodd" clip-rule="evenodd" d="M128.596,91.759c-2.414-2.503-4.637-4.849-6.918-7.137
		c-0.5-0.502-1.205-0.802-1.818-1.189c-0.763-0.481-1.778-0.79-2.243-1.474c-0.938-1.377-2.605-0.561-3.572-1.443
		c-0.934-0.852-1.612-1.988-2.567-2.81c-0.918-0.791-2.012-1.408-3.094-1.973c-1.434-0.75-3.166-1.109-4.338-2.131
		c-1.117-0.972-1.464-2.697-3.234-3.205c-1.449-0.415-2.326-1.554-2.375-3.081c-1.543-1.279-3.781-1.665-4.124-4.09
		c-0.067-0.471-1.031-0.772-1.488-1.241c-0.501-0.514-1.576-0.692-1.053-1.923c0.113-0.266-0.831-0.98-1.448-1.666
		c0.466-0.19,0.806-0.329,1.286-0.524c-0.39-0.489-0.783-0.982-1.266-1.59c0.456-0.13,0.702-0.291,0.893-0.241
		c10.144,2.623,19.574,7.011,28.885,11.695c1.394,0.702,2.835,1.31,4.101,1.891c1.295-0.617,0.966-1.328,0.67-2.166
		c-1.049-2.97-2.27-5.913-2.94-8.972c-0.613-2.798-0.597-5.733-0.847-8.481c1.25-0.603,2.161-1.043,3.26-1.574
		c1.05,0.295,2.249,0.517,3.165,1.676c0.475,0.601,1.51,0.765,2.303,1.102c0.123,0.053,0.428-0.073,0.438-0.044
		c0.985,2.874,4.118,3.696,5.706,6.005c3.284,4.774,6.647,9.496,9.949,14.257c0.754,1.088,1.4,2.251,2.206,3.56
		c2.171-0.414,4.367-0.738,6.512-1.266c2.442-0.601,4.836-0.275,7.153,0.342c3.141,0.836,5.275,2.958,5.74,6.22
		c0.37,2.606,1.788,4.072,3.921,5.341c3.921,2.333,7.717,4.877,11.565,7.333c-0.097,0.187-0.193,0.374-0.29,0.561
		c-1.633-0.799-3.249-1.638-4.904-2.386c-3.316-1.501-6.64-2.987-9.99-4.409c-1.402-0.596-2.634-0.313-3.905,0.713
		c-1.122,0.907-2.538,1.562-3.928,2.004c-3.134,1-5.993,2.368-8.339,4.75c-1.281,1.301-2.671,2.509-4.09,3.663
		c-1.358,1.104-2.302,2.288-2.252,4.194c0.019,0.724-0.536,1.556-1.032,2.177c-0.734,0.915-1.427,1.709-1.476,3.028
		c-0.06,1.588-1.61,1.736-2.746,2.094c-1.189,0.375-2.105-0.196-2.661-1.289c-0.334-0.658-0.616-1.343-1.04-2.274
		c-0.868,0.233-1.788,0.31-2.53,0.713c-1.823,0.99-3.611,2.061-5.329,3.223c-4.024,2.723-8.491,4.475-13.012,6.124
		c-0.215,0.078-0.485,0.011-1.141,0.011c0.302-1.014,0.404-1.982,0.849-2.755c2.692-4.678,5.397-9.352,8.231-13.946
		C124.96,96.69,126.748,94.391,128.596,91.759z"/>
	<path fill-rule="evenodd" clip-rule="evenodd" d="M322.987,168.129c0-1.551,0.042-3.103-0.007-4.65
		c-0.29-9.306-0.604-18.609-0.899-27.914c-0.021-0.664-0.059-1.347,0.06-1.993c0.253-1.372,0.985-2.215,2.538-2.188
		c2.744,0.048,5.49-0.017,8.234,0.02c1.901,0.025,2.534,0.605,2.544,2.563c0.014,2.91-0.133,5.818-0.193,8.729
		c-0.101,4.824-0.255,9.65-0.267,14.477c-0.022,9.813,0.035,19.628,0.062,29.443c0.007,2.979-0.976,3.796-3.968,3.486
		c-1.397-0.144-2.887-0.319-4.216,0.005c-2.405,0.587-3.793-0.587-5.063-2.266c-2.551-3.381-5.073-6.78-7.655-10.138
		c-3.112-4.049-6.326-8.021-9.397-12.103c-2.835-3.764-5.534-7.631-8.304-11.445c-0.283-0.389-0.646-0.721-1.351-1.499
		c0,0.974-0.004,1.479,0,1.986c0.068,10.654,0.149,21.31,0.201,31.964c0.018,3.396-0.54,3.791-4.008,3.468
		c-1.563-0.146-3.167-0.133-4.729,0.027c-3.528,0.362-4.105-0.079-4.03-3.682c0.176-8.568,0.535-17.134,0.547-25.701
		c0.012-8.568-0.319-17.136-0.479-25.703c-0.048-2.576,0.151-2.851,2.671-3.232c2.376-0.36,4.774-0.57,7.163-0.853
		c1.344-0.158,2.174,0.602,2.904,1.575c5.523,7.388,11.057,14.768,16.578,22.158c3.082,4.127,6.143,8.273,9.227,12.4
		c0.338,0.451,0.771,0.831,1.16,1.244C322.536,168.248,322.763,168.188,322.987,168.129z"/>
	<path fill-rule="evenodd" clip-rule="evenodd" d="M346.785,131.157c1.193,0.087,2.167,0.215,3.139,0.22
		c6.163,0.024,12.333-0.135,18.489,0.074c5.927,0.201,11.754,1.17,16.867,4.492c3.986,2.593,6.803,6.206,8.83,10.504
		c2.746,5.813,3.432,11.939,2.859,18.234c-0.364,3.99-1.646,7.735-3.37,11.383c-2.432,5.145-6.238,8.917-11.108,11.595
		c-4.252,2.336-8.932,2.737-13.761,2.566c-6.06-0.215-12.133-0.057-18.199-0.049c-0.58,0.001-1.159,0.109-1.737,0.108
		c-2.757-0.006-3.336-0.613-3.286-3.413c0.176-10.07,0.463-20.14,0.494-30.209c0.023-7.237-0.267-14.478-0.485-21.714
		C345.472,133.463,345.706,132.177,346.785,131.157z M358.364,178.742c0.996,0.258,1.634,0.563,2.27,0.563
		c3.576-0.002,7.161,0.067,10.725-0.17c3.874-0.258,6.947-2.199,9.114-5.403c4.988-7.377,5.557-15.207,1.739-23.18
		c-2.223-4.65-6.248-7.377-11.34-8.051c-3.196-0.424-6.48-0.313-9.72-0.26c-2.417,0.04-2.65,0.411-2.665,2.848
		c-0.047,7.567-0.089,15.136-0.12,22.703C358.352,171.442,358.364,175.094,358.364,178.742z"/>
	<path fill-rule="evenodd" clip-rule="evenodd" d="M112.832,131.636c7.405-0.208,14.351-0.489,21.299-0.572
		c6.693-0.081,13.083,0.939,18.195,5.893c2.413,2.338,3.72,5.244,4.493,8.411c0.884,3.623,0.537,7.295-0.103,10.905
		c-0.63,3.549-2.505,6.454-5.21,8.852c-2.557,2.267-2.601,2.627-1.149,5.758c2.3,4.962,4.674,9.891,6.909,14.881
		c1.724,3.849,1.036,4.625-3.223,4.299c-1.976-0.151-3.988-0.038-5.968,0.139c-2.581,0.229-3.48-0.173-4.5-2.508
		c-2.087-4.783-4.25-9.535-6.179-14.38c-0.851-2.139-2.193-2.893-4.353-2.816c-2.401,0.083-4.806,0.019-7.382,0.019
		c-0.112,0.991-0.26,1.619-0.24,2.243c0.13,4.157,0.296,8.313,0.451,12.471c0.009,0.248,0.021,0.498,0.029,0.747
		c0.146,4.139-0.628,4.751-4.804,4.232c-1.71-0.213-3.479-0.169-5.202-0.014c-2.729,0.245-3.563-0.349-3.506-3.028
		c0.165-7.738,0.509-15.477,0.535-23.215c0.024-7.401-0.252-14.807-0.417-22.21c-0.054-2.412-0.244-4.824-0.24-7.235
		C112.267,133.559,112.627,132.613,112.832,131.636z M125.489,159.937c4.163,0,8.247,0.253,12.285-0.067
		c4.424-0.351,6.644-3.071,6.637-7.522c-0.002-1.481-0.208-2.994-0.554-4.438c-0.611-2.536-2.418-4.194-4.818-4.827
		c-4.369-1.152-8.842-1.044-13.549-0.537C125.489,148.325,125.489,153.944,125.489,159.937z"/>
	<path fill-rule="evenodd" clip-rule="evenodd" d="M203.388,175.902c-0.298-4.114-0.587-8.091-0.877-12.068
		c-0.042-0.58-0.135-1.162-0.122-1.74c0.038-1.715,0.957-2.576,2.677-2.536c2.739,0.063,5.477,0.151,8.216,0.199
		c2.034,0.036,2.869,0.651,2.736,2.649c-0.514,7.752,0.26,15.459,0.559,23.185c0.122,3.171-1.143,4.023-4.181,2.869
		c-1.311-0.498-2.587-1.087-4.101-1.727c-0.657,0.334-1.449,0.763-2.261,1.15c-4.599,2.197-9.341,3.472-14.541,3.613
		c-5.823,0.16-10.941-1.47-15.631-4.59c-4.607-3.066-8.064-7.292-10.034-12.448c-4.465-11.679-3.912-23.033,3.484-33.444
		c4.782-6.732,11.453-10.373,19.859-10.732c8.358-0.358,15.493,2.272,21.415,8.185c0.117,0.117,0.236,0.234,0.35,0.357
		c3.471,3.771,3.538,5.217,0.087,8.985c-1.354,1.48-2.269,3.554-4.95,3.914c-0.585-0.242-1.488-0.616-2.368-0.979
		c-2.159-4.308-5.624-7.188-10.283-8.153c-4.615-0.957-8.792,0.576-11.984,4.044c-7.415,8.054-7.206,21.229,0.442,28.704
		c3.46,3.382,7.585,4.595,12.27,3.971C197.375,178.881,200.434,177.86,203.388,175.902z"/>
	<path fill-rule="evenodd" clip-rule="evenodd" d="M272.146,154.197c0,5.996,0.052,11.992-0.027,17.986
		c-0.029,2.322-0.199,4.666-0.578,6.955c-0.968,5.848-4.991,8.707-10.185,10.837c-3.601,1.477-7.158,1.395-10.81,1.41
		c-4.224,0.019-8.398-0.054-12.616-0.874c-8.335-1.622-12.228-5.531-12.696-14.07c-0.264-4.81-0.099-9.641-0.187-14.461
		c-0.106-5.822-0.255-11.646-0.424-17.468c-0.095-3.325-0.311-6.647-0.382-9.973c-0.058-2.731,0.402-3.137,3.208-3.15
		c2.415-0.012,4.831-0.011,7.245,0.022c2.531,0.033,3.088,0.593,3.053,3.112c-0.16,11.485-0.355,22.971-0.487,34.456
		c-0.019,1.735,0.142,3.486,0.374,5.211c0.451,3.348,2.635,5.018,5.781,5.664c3.683,0.757,7.363,0.466,11.01-0.176
		c3.331-0.588,5.197-2.947,5.217-6.602c0.039-7.41-0.003-14.822-0.059-22.231c-0.038-5.241-0.181-10.485-0.224-15.728
		c-0.025-3.053,0.63-3.686,3.615-3.71c2.328-0.02,4.656-0.033,6.981-0.012c2.25,0.021,2.777,0.551,2.737,2.837
		c-0.118,6.655-0.269,13.31-0.407,19.965C272.238,154.198,272.192,154.198,272.146,154.197z"/>
	<path fill-rule="evenodd" clip-rule="evenodd" d="M53.909,131.932c1.292-0.21,2.319-0.492,3.353-0.521
		c2.331-0.067,4.665-0.021,6.998-0.002c2.789,0.022,3.233,0.422,3.199,3.163c-0.134,10.739-0.336,21.476-0.431,32.214
		c-0.022,2.481,0.166,4.979,0.457,7.445c0.38,3.217,2.47,4.958,5.513,5.582c3.629,0.744,7.294,0.648,10.913-0.028
		c3.563-0.666,5.505-2.914,5.523-6.641c0.049-10.077-0.042-20.157-0.083-30.235c-0.012-2.916-0.075-5.831-0.05-8.746
		c0.016-1.876,0.693-2.669,2.477-2.727c2.828-0.092,5.661-0.082,8.489-0.017c1.69,0.04,2.242,0.676,2.229,2.603
		c-0.037,5.246-0.145,10.49-0.237,15.735c-0.099,5.491-0.184,10.985-0.329,16.476c-0.104,3.904-0.203,7.813-0.473,11.708
		c-0.4,5.768-3.636,9.461-8.926,11.414c-3.579,1.322-7.158,2.624-11.143,2.09c-2.046-0.274-4.162-0.102-6.242-0.036
		c-3.954,0.123-7.695-0.915-11.423-2.014c-4.831-1.424-7.397-4.879-8.212-9.676c-0.402-2.366-0.595-4.787-0.645-7.188
		c-0.224-10.819-0.343-21.641-0.544-32.46C54.271,137.428,54.058,134.786,53.909,131.932z"/>
	<path fill-rule="evenodd" clip-rule="evenodd" d="M422.004,74.28c0,3.063,0,6.627,0,10.552c8.254,0.283,16.421-0.642,24.867-0.501
		c0.21,1.146,0.57,2.17,0.547,3.185c-0.051,2.157-0.263,4.312-0.482,6.46c-0.178,1.733-1.328,2.274-3.477,2.208
		c-7.054-0.214-14.11-0.314-21.455-0.463c-0.145,4.691-0.358,9.027,0.237,13.412c3.755,1.221,7.318,0.751,10.86,0.558
		c4.563-0.251,9.123-0.588,13.688-0.781c2.137-0.09,2.853,0.565,2.68,2.604c-0.224,2.636-0.675,5.258-1.171,7.858
		c-0.2,1.046-1.006,1.696-2.198,1.631c-0.832-0.044-1.663-0.074-2.495-0.092c-7.895-0.166-15.787-0.35-23.681-0.479
		c-2.663-0.044-5.326,0.088-7.989,0.077c-2.363-0.01-3.006-0.599-2.932-2.97c0.243-7.809,0.647-15.613,0.822-23.423
		c0.091-4.065-0.151-8.139-0.276-12.208c-0.169-5.568-0.408-11.135-0.543-16.704c-0.065-2.742,0.589-3.382,3.366-3.382
		c8.325-0.001,16.649,0.057,24.974,0.073c2.33,0.004,4.661-0.111,6.99-0.069c2.381,0.043,2.83,0.459,3.259,2.829
		c0.308,1.714,0.54,3.441,0.777,5.168c0.322,2.347-0.457,3.245-2.876,3.175c-4.652-0.133-9.305-0.332-13.957-0.492
		c-1.415-0.049-2.829-0.088-4.244-0.08C425.465,72.434,423.503,71.997,422.004,74.28z"/>
	<path fill-rule="evenodd" clip-rule="evenodd" d="M308.414,72.736c-5.007,0-9.477,0-14.13,0c-0.082,0.571-0.228,1.206-0.259,1.847
		c-0.636,13.393-0.068,26.776,0.269,40.163c0.175,6.955-0.142,5.691-5.283,5.674c-1.829-0.006-3.661,0.054-5.493,0.062
		c-2.156,0.008-2.9-0.625-2.863-2.801c0.067-4.155,0.367-8.308,0.397-12.464c0.072-10.057,0.057-20.115,0.047-30.172
		c-0.002-2.032-0.292-2.285-2.313-2.225c-3.655,0.108-7.311,0.254-10.966,0.393c-1.769,0.067-2.514-0.6-2.284-2.339
		c0.323-2.467,0.758-4.922,1.231-7.365c0.27-1.401,1.182-2.134,2.672-2.047c4.561,0.266,9.12,0.547,13.684,0.769
		c2.325,0.113,4.662,0.235,6.986,0.132c4.645-0.207,9.285-0.568,13.926-0.861c0.582-0.037,1.165-0.082,1.746-0.078
		c2.27,0.013,2.76,0.515,2.849,2.769c0.075,1.91,0.264,3.817,0.267,5.727C308.897,70.845,308.588,71.776,308.414,72.736z"/>
	<path fill-rule="evenodd" clip-rule="evenodd" d="M338.75,120.146c-4.332,0.406-8.688,0.57-13.26-0.145
		c0.017-16,1.28-31.616,0.131-47.316c-4.375,0.145-8.592,0.254-12.805,0.438c-2.19,0.096-2.996-0.663-2.608-2.693
		c0.437-2.277,0.896-4.551,1.354-6.824c0.311-1.539,0.977-2.181,2.522-2.124c4.367,0.161,8.726,0.462,13.091,0.588
		c3.649,0.105,7.306,0.14,10.954,0.029c4.07-0.124,8.132-0.499,12.201-0.663c2.563-0.103,3.218,0.652,3.211,3.239
		c-0.005,1.915,0.045,3.829,0.017,5.743c-0.031,2.003-0.498,2.472-2.521,2.506c-1.999,0.034-4,0.034-5.997-0.025
		c-1.905-0.058-3.807-0.211-6.05-0.341c-0.136,1.395-0.384,2.755-0.381,4.114c0.018,9.825,0.095,19.649,0.137,29.474
		C338.766,110.627,338.75,115.107,338.75,120.146z"/>
	<path fill-rule="evenodd" clip-rule="evenodd" d="M211.04,109.399c0.942,0.044,1.678,0.127,2.41,0.105
		c6.319-0.193,12.638-0.387,18.955-0.628c1.071-0.041,2.128-0.389,3.2-0.445c1.779-0.092,2.583,0.535,2.558,2.245
		c-0.04,2.657-0.213,5.318-0.495,7.962c-0.159,1.493-1.316,2.31-3.045,2.271c-3.156-0.069-6.308-0.307-9.465-0.37
		c-4.545-0.091-9.093-0.112-13.639-0.118c-3.331-0.005-6.663,0.07-9.994,0.089c-0.827,0.005-1.653-0.077-2.354-0.113
		c-1.278-1.038-1.07-2.35-1.047-3.572c0.149-7.824,0.473-15.647,0.455-23.471c-0.016-7.569-0.371-15.136-0.581-22.705
		c-0.058-2.08-0.196-4.16-0.177-6.239c0.017-1.928,0.668-2.535,2.575-2.554c2.748-0.027,5.497-0.001,8.245,0.009
		c2.219,0.008,2.786,0.557,2.734,2.832c-0.156,6.739-0.416,13.476-0.503,20.215c-0.097,7.496-0.052,14.993-0.052,22.489
		C210.822,107.972,210.942,108.544,211.04,109.399z"/>
	<path fill-rule="evenodd" clip-rule="evenodd" d="M375.788,109.633c6.298-0.167,12.274-0.28,18.246-0.511
		c1.982-0.075,3.95-0.482,5.93-0.686c2.27-0.232,3.079,0.456,3.024,2.769c-0.051,2.236-0.199,4.48-0.482,6.698
		c-0.32,2.494-1.034,3.052-3.617,3.015c-9.729-0.145-19.456-0.33-29.184-0.483c-1.413-0.021-2.83,0.118-4.241,0.058
		c-1.964-0.085-2.526-0.622-2.493-2.627c0.104-6.401,0.372-12.8,0.421-19.199c0.04-5.236-0.099-10.474-0.239-15.708
		c-0.159-5.982-0.427-11.961-0.608-17.942c-0.074-2.45,0.647-3.146,3.031-3.147c2.662-0.001,5.325-0.022,7.989-0.013
		c2.048,0.006,2.604,0.434,2.576,2.456c-0.081,5.734-0.27,11.469-0.418,17.202c-0.055,2.078-0.159,4.156-0.168,6.235
		c-0.023,6.075-0.021,12.151-0.002,18.228C375.556,107.043,375.686,108.109,375.788,109.633z"/>
	<path fill-rule="evenodd" clip-rule="evenodd" d="M257.553,120.485c-3.853,0-7.508,0.052-11.16-0.024
		c-1.617-0.034-2.211-0.783-2.177-2.691c0.063-3.575,0.211-7.15,0.37-10.723c0.592-13.31,0.344-26.609-0.352-39.909
		c-0.266-5.081-0.162-5.594,5.041-5.264c1.905,0.121,3.827-0.048,5.742-0.062c2.427-0.018,2.855,0.372,2.828,2.956
		c-0.063,6.076-0.235,12.15-0.284,18.226c-0.049,6.151-0.061,12.304,0.019,18.454c0.072,5.406,0.312,10.81,0.424,16.215
		C258.021,118.473,257.753,119.289,257.553,120.485z"/>
</g>
</svg>
